<?xml version="1.0" encoding="UTF-8" standalone="no"?><!DOCTYPE svg PUBLIC "-//W3C//DTD SVG 1.1//EN" "http://www.w3.org/Graphics/SVG/1.1/DTD/svg11.dtd"><svg width="100%" height="100%" viewBox="0 0 1801 1800" version="1.1" xmlns="http://www.w3.org/2000/svg" xmlns:xlink="http://www.w3.org/1999/xlink" xml:space="preserve" xmlns:serif="http://www.serif.com/" style="fill-rule:evenodd;clip-rule:evenodd;stroke-linecap:round;stroke-linejoin:round;stroke-miterlimit:1.5;"><rect id="nuance" x="0.027" y="0" width="1800" height="1800" style="fill:none;"/><rect id="pcolor" x="950.403" y="1133.22" width="529.803" height="470.33" style="fill:#2985c3;fill-opacity:0.31;"/><path d="M818.311,145.896c159.699,91.629 177.029,361.789 38.676,602.921c-138.353,241.131 -380.333,362.509 -540.032,270.879c-159.698,-91.629 -177.028,-361.789 -38.675,-602.921c138.353,-241.132 380.333,-362.509 540.031,-270.879Z" style="fill:#a2a2a2;"/><path d="M1211.58,642.177c-79.812,26.788 -277.003,166.146 -312.904,188.383c-161.06,99.762 -322.174,204.173 -493.324,286.213c-25.632,12.286 -205.59,74.4 -224.418,35.856c-44.89,-91.895 33.771,-275.883 80.88,-358.266c159.95,-279.717 385.138,-485.892 716.087,-517.131c122.843,-11.595 239.946,0.383 338.429,80.192c51.102,41.412 94.347,90 137.792,139.065c71.208,80.421 201.483,248.047 174.816,24.975c-5.37,-44.93 -30.445,-90.976 -53.521,-128.877c-95.762,-157.29 -305.525,-272.87 -478.452,-157.897c-113.748,75.627 -70.367,269.088 -45.079,380.787c11.172,49.345 32.444,130.894 -20.209,164.296c-20.913,13.266 -43.554,16.379 -67.821,18.969c-149.556,15.965 -234.174,-128.288 -245.055,-261.64c-3.68,-45.104 -12.521,-102.235 20.647,-139.891c56.042,-63.626 116.847,27.354 139.273,73.497c65.792,135.368 90.025,291.825 97.257,440.875c1.572,32.399 12.489,121.544 -35.644,130.808c-35.942,6.919 -47.492,-74.149 -51.422,-96.692c-19.315,-110.809 -28.374,-227.865 -22.007,-340.37c3.197,-56.488 19.571,-111.385 41.978,-163.325c1.662,-3.854 3.041,-13.718 6.203,-10.958c17.251,15.058 0.844,184.19 -4.224,216.257c-38.647,244.551 -61.844,450.896 -335.623,520.701c-69.015,17.597 -168.883,32.509 -219.544,-34.053c-20.446,-26.865 -28.742,-61.693 -34.398,-94.162c-4.794,-27.526 -14.864,-59.971 -4.81,-87.976c55.492,-154.57 431.613,-203.763 557.707,-135.181c141.107,76.747 220.059,202.466 271.698,349.181c10.37,29.463 63.744,247.493 89.749,244.228c23.12,-2.903 102.638,-91.481 109.05,-97.244c68.407,-61.492 141.899,-105.285 112.469,-207.92c-19.596,-68.34 -80.947,-122.93 -135.779,-163.833c-27.778,-20.722 -59.375,-43.622 -93.515,-53.082c-6.005,-1.664 -5.493,-0.656 -5.493,2.094" style="fill:none;stroke:#333;stroke-width:9.5px;"/><path d="M517.28,1354.35c25.305,18.879 -35.236,172.406 70.224,232.13c194.714,110.272 605.585,187.84 679.058,-110.902c18.845,-76.625 -1.718,-160.42 -41.669,-226.324c-28.849,-47.589 -75.392,-94.619 -132.649,-103.805c-242.033,-38.827 -127.426,394.625 -348.085,407.605c-75.699,4.453 -122.869,-21.783 -174.664,-77.247c-43.642,-46.733 -81.149,-115.291 -67.715,-182.192c6.091,-30.335 45.829,-44.916 71.22,-51.618c59.697,-15.756 130.338,-9.265 188.289,10.062c75.708,25.249 193.433,150.08 249.462,33.824c33.696,-69.918 40.697,-283.086 -96.143,-185.576c-124.741,88.889 -145.181,274.769 -242.91,386.343c-8.228,9.393 -34.99,35.437 -45.534,13.006c-19.427,-41.327 -15.015,-88.832 -14.33,-132.834c5.338,-342.721 440.447,-87.295 524.32,-127.132c15.427,-7.327 15.892,-26.472 17.834,-41.106c17.315,-130.524 -95.592,-211.057 -214.499,-216.568c-125.664,-5.823 -125.954,300.657 -104.211,371.571c5.689,18.554 25.322,44.288 35.454,59.609c4.974,7.52 23.047,27.546 16.239,21.634c-122.575,-106.438 -261.99,-550.852 -326.451,-719.607c-43.575,-114.077 -77.357,-230.664 -111.018,-348.003c-4.343,-15.139 -7.989,-30.471 -11.759,-45.763c-2.257,-9.152 -8.013,-36.836 -5.727,-27.692c37.551,150.203 136.329,307.052 205.372,443.629c71.386,141.211 155.571,273.507 249.074,400.945c21.114,28.778 21.475,26.52 41.079,57.191c3.524,5.513 8.222,22.855 10.359,16.671c3.731,-10.797 -78.194,-186.943 -85.111,-206.619c-60.794,-172.912 -132.69,-487.828 -75.873,-668.421c68.496,-217.714 380.263,98.33 438.614,129.925c56.393,30.535 65.618,20.646 100.129,-34.531c9.829,-15.715 35.42,-58.98 37.974,-40.621c2.545,18.294 3.73,81.501 3.818,96.921c0.887,155.015 4.877,308.478 12.344,463.277c9.641,199.873 -37.152,215.264 -238.002,220.669c-38.732,1.043 -77.323,-1.426 -106.211,-30.313" style="fill:none;stroke:#333;stroke-width:9.5px;"/></svg>