<?xml version="1.0" encoding="UTF-8" standalone="no"?><!DOCTYPE svg PUBLIC "-//W3C//DTD SVG 1.1//EN" "http://www.w3.org/Graphics/SVG/1.1/DTD/svg11.dtd"><svg width="100%" height="100%" viewBox="0 0 1801 1801" version="1.1" xmlns="http://www.w3.org/2000/svg" xmlns:xlink="http://www.w3.org/1999/xlink" xml:space="preserve" xmlns:serif="http://www.serif.com/" style="fill-rule:evenodd;clip-rule:evenodd;stroke-linecap:round;stroke-linejoin:round;stroke-miterlimit:1.5;"><rect id="trappist-1h" x="0.667" y="0.756" width="1800" height="1800" style="fill:none;"/><g><path id="pcolor" d="M1347.34,571.578c115.668,67.352 155.358,216.742 88.577,333.399c-66.78,116.656 -214.905,156.685 -330.573,89.333c-115.668,-67.351 -155.358,-216.742 -88.577,-333.398c66.781,-116.656 214.906,-156.685 330.573,-89.334Z" style="fill:#2985c3;"/><path d="M1000.61,133.196c247.403,144.059 332.296,463.593 189.458,713.11c-142.838,249.518 -459.664,335.137 -707.067,191.078c-247.403,-144.059 -332.297,-463.593 -189.458,-713.11c142.838,-249.518 459.664,-335.136 707.067,-191.078Z" style="fill:#a2a2a2;"/><path d="M586.775,1434.39c5.278,-45.066 14.263,-202.011 11.693,-201.875c-18.968,1.01 -200.939,44.272 -301.876,-102.002c-85.129,-123.365 -20.3,-227.802 31.432,-370.878c17.312,-47.879 175.737,-442.639 197.777,-434.88c25.647,9.029 -35.874,134.868 -16.118,128.835c12.118,-3.701 114.093,-247.052 129.156,-241.167c35.08,13.705 -88.385,270.751 -66.447,285.472c33.516,22.491 195.166,-332.403 241.728,-321.22c30.761,7.388 -154.043,339.655 -187.573,392.136c-13.854,21.684 46.828,-69.215 118.355,-73.399c39.138,-2.289 65.027,10.876 82.026,35.764c17.538,25.677 24.949,64.363 -16.153,146.381c-11.577,23.101 -72.923,41.894 -52.608,57.948c25.48,20.136 -14.134,54.006 -52.533,72.638c-35.446,17.199 -81.725,6.833 -119.161,8.311c-92.701,3.66 -139.733,79.37 -175.29,162.844c-17.595,41.307 -44.635,103.261 -4.078,134.288c33.343,25.51 80.877,13.905 118.098,4.978c67.102,-16.094 125.824,-53.067 179.693,-95.345c26.7,-20.954 51.827,-47.906 80.996,-65.157c45.836,-27.108 100.367,-22.474 151.176,-55.804c3.831,-2.513 9.259,-33.184 10.955,-39.433c9.69,-35.702 29.39,-74.837 72.272,-71.835c29.001,2.031 41.687,28.666 47.479,53.989c1.654,7.233 4.562,29.245 5.971,29.909c3.041,1.43 30.459,-4.512 35.599,-5.283c30.688,-4.606 61.416,-9.091 92.33,-11.868c61.052,-5.485 124.71,-5.265 181.939,19.65c44.697,19.459 83.739,52.225 114.266,92.398c52.759,69.429 80.083,160.982 67.194,244.198m-789.386,-570.286c17.63,-47.146 3.117,-98.79 -45.328,-78.856c-38.09,15.673 -85.221,78.016 -109.116,110.837c-7.544,10.363 -20.834,23.115 -24.062,36.004c-10.893,43.489 58.701,49.454 85.416,43.323c19.222,-4.411 36.659,-18.482 53.949,-22.035c36.637,-7.527 29.339,-52.603 38.463,-82.669l0.678,-6.604Z" style="fill:#fff;stroke:#000;stroke-width:9.5px;"/><g><g><path id="pcolor1" serif:id="pcolor" d="M752.527,670.907l49.47,-22.09c230.387,242.761 497.367,756.082 672.078,555.208c-172.383,260.111 -314.545,404.488 -654.348,315.567c229.06,-168.85 91.465,-514.969 -67.2,-848.685Z" style="fill:#2985c3;fill-opacity:0.22;"/><path id="pcolor2" serif:id="pcolor" d="M754.685,609.264c43.842,-12.806 89.744,12.696 102.441,56.912c12.697,44.216 -12.588,90.511 -56.43,103.316c-43.841,12.806 -89.743,-12.695 -102.44,-56.912c-12.698,-44.216 12.588,-90.51 56.429,-103.316Z" style="fill:#2985c3;fill-opacity:0.27;"/><path d="M762.731,637.283c28.509,-8.327 58.357,8.256 66.613,37.008c8.257,28.752 -8.185,58.855 -36.694,67.182c-28.508,8.327 -58.356,-8.255 -66.613,-37.007c-8.256,-28.752 8.186,-58.856 36.694,-67.183Z" style="fill:#343434;"/></g></g><g><path d="M461.24,361.883c-14.847,-8.285 -27.449,17.294 -29.947,27.294c-3.551,14.217 -5.945,27.266 12.852,35.399c25.308,10.95 34.982,-24.007 22.787,-33.149c-8.086,-6.061 9.156,-21.26 -5.692,-29.544Z" style="fill-opacity:0.26;"/><path d="M624.235,811.142c-12.341,3.041 -19.206,29.117 -16.084,47.135c2.154,12.426 12.539,28.714 22.74,37.114c18.957,15.61 31.182,-6.014 30.695,-18.822c-0.659,-17.344 -14.579,-18.592 -20.849,-32.195c-4.102,-8.901 -4.162,-36.274 -16.502,-33.232Z" style="fill-opacity:0.26;"/><path d="M728.537,875.911c-16.861,4.506 -17.069,12.675 -11.325,24.397c5.191,10.594 0.086,14.141 4.039,22.815c6.151,13.498 13.027,17.623 25.425,15.424c19.432,-3.446 33.478,-13.426 22.74,-37.1c-6.262,-13.805 -26.956,-29.257 -40.879,-25.536Z" style="fill-opacity:0.26;"/></g><g><path d="M920.798,228.543c-45.737,-13.895 -16.281,51.542 -67.675,14.332c-16.421,-11.889 -43.064,-18.711 -46.734,9.035c-0.715,5.409 -1.634,11.808 0.827,17.001c8.527,17.99 39.911,25.448 37.154,49.135c-4.099,35.207 -48.123,49.305 -33.187,89.156c16.703,44.568 64.426,68.107 91.124,105.474c17.419,24.379 6.19,48.76 13.513,74.739c1.126,3.995 9.091,25.533 18.202,23.483c8.721,-1.962 17.53,-4.891 25.164,-9.683c58.195,-36.526 10.53,-110.172 -6.738,-154.48c-5.125,-13.151 -11.427,-32.107 -8.33,-46.791c9.729,-46.123 26.856,-156.157 -23.32,-171.401Z" style="fill-opacity:0.26;"/><path d="M1079.42,547.25c-9.883,-10.654 -19.277,-28.97 -32.25,-29.29c-19.102,-0.472 -22.589,41.684 -21.8,53.558c0.568,8.547 2.206,12.978 5.241,20.758c3.059,7.842 7.841,14.408 9.642,22.731c3.254,15.035 -7.998,35.587 2.705,48.242c32.966,38.974 80.842,-29.758 81.781,-61.671c0.862,-29.292 -32.39,-40.392 -45.319,-54.328Z" style="fill-opacity:0.26;"/></g><path d="M1470.98,1197.38c-38.421,73.56 -77.702,137.596 -143.82,189.813c-73.155,57.776 -155.857,108.505 -246.642,131.446c-40.006,10.109 -105.845,21.276 -146.548,20.006c-32.595,-1.018 -65.553,-8.539 -97.626,-14.136c-24.532,-4.281 -120.965,-37.588 -127.493,-15.709c-6.142,20.584 108.981,62.684 109.132,62.918c2.386,3.683 -213.254,-9.231 -225.969,13.617c-9.741,17.507 199.686,23.255 209.73,38.186c11.459,13.118 -158.756,27.626 -159.343,40.711c-1.379,30.706 209.326,20.181 209.326,20.181c-0,0 -56.86,29.765 -53.892,43.504c9.33,43.189 522.464,-119.588 714.922,-334.111" style="fill:#fff;stroke:#000;stroke-width:9.5px;"/></g></svg>